<svg width="31" height="33" viewBox="0 0 31 33" fill="none" xmlns="http://www.w3.org/2000/svg">
<path fill-rule="evenodd" clip-rule="evenodd" d="M17.6593 0C17.7263 2.09882e-05 17.7781 0.0596419 17.7687 0.125977L16.2872 10.6113C16.2685 10.7442 16.5181 10.8109 16.5773 10.6904C18.0607 7.67028 21.164 5.63985 24.6876 5.63965C28.3791 5.63971 31.2173 8.90628 30.7013 12.5615L27.8283 32.9131C27.8205 32.9674 27.7737 33.0077 27.7189 33.0078H13.1027C13.0357 33.0078 12.9839 32.9482 12.9933 32.8818L14.4738 22.3955C14.4924 22.2627 14.2429 22.196 14.1837 22.3164C12.7004 25.3373 9.59746 27.369 6.07338 27.3691C2.38218 27.3689 -0.455038 24.1022 0.060681 20.4473L2.93373 0.0947266C2.94141 0.0403445 2.98818 0 3.0431 0H17.6593ZM20.4279 12.0469L20.0578 14.6738H23.0538L21.5343 25.4727H18.5382L18.1681 28.0996H23.7921L26.0519 12.0469H20.4279ZM6.96986 4.91016L4.71009 20.9629H10.3322L10.7023 18.3359H7.70717L9.2267 7.53711H12.2218L12.5919 4.91016H6.96986Z" fill="#0A2240"/>
</svg>
