<svg width="20" height="20" viewBox="0 0 20 20" fill="none" xmlns="http://www.w3.org/2000/svg">
<path d="M4.16699 4.16716C4.16691 3.8739 4.2442 3.58582 4.39106 3.33199C4.53793 3.07816 4.74917 2.86757 5.00345 2.72149C5.25774 2.57541 5.54606 2.49901 5.83932 2.50001C6.13257 2.50101 6.42037 2.57936 6.67366 2.72716L16.6712 8.55883C16.9235 8.70523 17.1329 8.91528 17.2786 9.168C17.4243 9.42071 17.5011 9.70724 17.5014 9.99894C17.5016 10.2906 17.4253 10.5773 17.2801 10.8303C17.1348 11.0832 16.9257 11.2937 16.6737 11.4405L6.67366 17.2738C6.42037 17.4216 6.13257 17.5 5.83932 17.501C5.54606 17.502 5.25774 17.4256 5.00345 17.2795C4.74917 17.1334 4.53793 16.9228 4.39106 16.669C4.2442 16.4152 4.16691 16.1271 4.16699 15.8338V4.16716Z" fill="white"/>
</svg>
