<svg width="20" height="20" viewBox="0 0 20 20" fill="none" xmlns="http://www.w3.org/2000/svg">
<path d="M14.9758 3.57052C15.2287 3.41878 15.5174 3.33686 15.8123 3.33314C16.1072 3.32942 16.3978 3.40403 16.6545 3.54934C16.9112 3.69466 17.1247 3.90548 17.2732 4.16029C17.4217 4.41509 17.5 4.70475 17.5 4.99969V14.9997C17.5 15.2946 17.4217 15.5843 17.2732 15.8391C17.1247 16.0939 16.9112 16.3047 16.6545 16.45C16.3978 16.5954 16.1072 16.67 15.8123 16.6662C15.5174 16.6625 15.2287 16.5806 14.9758 16.4289L6.645 11.4305C6.39769 11.2828 6.19291 11.0734 6.05062 10.8229C5.90834 10.5724 5.83342 10.2893 5.83317 10.0012C5.83291 9.71314 5.90734 9.42991 6.04919 9.17916C6.19103 8.92842 6.39545 8.71872 6.6425 8.57052L14.9758 3.57052Z" fill="white"/>
<path d="M2.5 16.6664V3.33302V16.6664Z" fill="white"/>
<path d="M2.5 16.6664V3.33302M14.9758 3.57052C15.2287 3.41878 15.5174 3.33686 15.8123 3.33314C16.1072 3.32942 16.3978 3.40403 16.6545 3.54934C16.9112 3.69466 17.1247 3.90548 17.2732 4.16029C17.4217 4.41509 17.5 4.70475 17.5 4.99969V14.9997C17.5 15.2946 17.4217 15.5843 17.2732 15.8391C17.1247 16.0939 16.9112 16.3047 16.6545 16.45C16.3978 16.5954 16.1072 16.67 15.8123 16.6662C15.5174 16.6625 15.2287 16.5806 14.9758 16.4289L6.645 11.4305C6.39769 11.2828 6.19291 11.0734 6.05062 10.8229C5.90834 10.5724 5.83342 10.2893 5.83317 10.0012C5.83291 9.71314 5.90734 9.42991 6.04919 9.17916C6.19103 8.92842 6.39545 8.71872 6.6425 8.57052L14.9758 3.57052Z" stroke="white" stroke-width="1.66667" stroke-linecap="round" stroke-linejoin="round"/>
</svg>
