<svg width="20" height="20" viewBox="0 0 20 20" fill="none" xmlns="http://www.w3.org/2000/svg">
<path d="M17.5 3.33302V16.6664V3.33302Z" fill="white"/>
<path d="M5.02417 3.57052C4.77126 3.41878 4.48261 3.33686 4.18769 3.33314C3.89278 3.32942 3.60216 3.40403 3.3455 3.54934C3.08884 3.69466 2.87534 3.90548 2.7268 4.16029C2.57826 4.41509 2.5 4.70475 2.5 4.99969V14.9997C2.5 15.2946 2.57826 15.5843 2.7268 15.8391C2.87534 16.0939 3.08884 16.3047 3.3455 16.45C3.60216 16.5954 3.89278 16.67 4.18769 16.6662C4.48261 16.6625 4.77126 16.5806 5.02417 16.4289L13.355 11.4305C13.6023 11.2828 13.8071 11.0734 13.9494 10.8229C14.0917 10.5724 14.1666 10.2893 14.1668 10.0012C14.1671 9.71314 14.0927 9.42991 13.9508 9.17916C13.809 8.92842 13.6045 8.71872 13.3575 8.57052L5.02417 3.57052Z" fill="white"/>
<path d="M17.5 3.33302V16.6664M5.02417 3.57052C4.77126 3.41878 4.48261 3.33686 4.18769 3.33314C3.89278 3.32942 3.60216 3.40403 3.3455 3.54934C3.08884 3.69466 2.87534 3.90548 2.7268 4.16029C2.57826 4.41509 2.5 4.70475 2.5 4.99969V14.9997C2.5 15.2946 2.57826 15.5843 2.7268 15.8391C2.87534 16.0939 3.08884 16.3047 3.3455 16.45C3.60216 16.5954 3.89278 16.67 4.18769 16.6662C4.48261 16.6625 4.77126 16.5806 5.02417 16.4289L13.355 11.4305C13.6023 11.2828 13.8071 11.0734 13.9494 10.8229C14.0917 10.5724 14.1666 10.2893 14.1668 10.0012C14.1671 9.71314 14.0927 9.42991 13.9508 9.17916C13.809 8.92842 13.6045 8.71872 13.3575 8.57052L5.02417 3.57052Z" stroke="white" stroke-width="1.66667" stroke-linecap="round" stroke-linejoin="round"/>
</svg>
