<svg width="101" height="109" viewBox="0 0 101 109" fill="none" xmlns="http://www.w3.org/2000/svg">
<path fill-rule="evenodd" clip-rule="evenodd" d="M57.8797 0C58.0992 0.000148782 58.2678 0.194738 58.2371 0.412109L53.3836 34.7861C53.3221 35.2219 54.1428 35.4419 54.3367 35.0469C59.198 25.1439 69.3704 18.4846 80.9227 18.4844C93.0216 18.4848 102.323 29.1907 100.632 41.1709L91.2147 107.876C91.1894 108.054 91.0362 108.187 90.8563 108.187H42.95C42.7306 108.186 42.5619 107.992 42.5926 107.774L47.4442 73.3984C47.5053 72.9629 46.6858 72.7437 46.492 73.1387C41.6315 83.0426 31.4599 89.703 19.907 89.7031C7.8081 89.7029 -1.49202 78.9968 0.199035 67.0166L9.61603 0.310547C9.6413 0.132435 9.79353 0 9.97345 0H57.8797ZM66.9637 39.4824L65.7518 48.0938H75.5662L70.5848 83.4863H60.7693L59.5574 92.0967H77.9832L85.3904 39.4824H66.9637ZM22.8455 16.0918L15.4393 68.7061H33.867L35.0789 60.0947H25.2635L30.2449 24.7031H40.0613L41.2733 16.0928L41.618 16.0918H22.8455Z" fill="white"/>
</svg>
